<svg width="86" height="59" fill="none" xmlns="http://www.w3.org/2000/svg"><circle cx="19.52" cy="38.559" r="19.52" fill="#fff"/><path d="M21.705 0C15.28 9.013 2.323 27.789 1.895 30.787c2.052 3.034 6.746 9.21 9.102 9.638 2.356.428 15.795-3.748 22.22-5.89-.535-2.855-2.142-9.316-4.283-12.315C26.792 19.222 34.824 6.157 39.107 0H21.705z" fill="#fff"/><circle cx="66.346" cy="38.559" r="19.52" fill="#fff"/><path d="M68.532 0C62.107 9.013 49.149 27.789 48.72 30.787c2.052 3.034 6.746 9.21 9.102 9.638 2.356.428 15.795-3.748 22.22-5.89-.535-2.855-2.142-9.316-4.283-12.315C73.618 19.222 81.65 6.157 85.933 0H68.532z" fill="#fff"/></svg>