<svg width="689" height="465" fill="none" xmlns="http://www.w3.org/2000/svg"><g opacity=".23" fill="#fff"><circle cx="156.771" cy="308.714" r="156.281"/><path d="M174.27 0C122.829 72.161 19.088 222.485 15.658 246.491c16.433 24.292 54.014 73.733 72.876 77.163 18.862 3.429 126.46-30.008 177.902-47.155-4.287-22.863-17.147-74.59-34.294-98.596C214.994 153.896 279.296 49.298 313.591 0H174.27z"/><circle cx="531.677" cy="308.714" r="156.281"/><path d="M549.175 0c-51.441 72.161-155.182 222.485-158.612 246.491 16.433 24.292 54.014 73.733 72.876 77.163 18.862 3.429 126.461-30.008 177.902-47.155-4.287-22.863-17.147-74.59-34.294-98.596C589.9 153.896 654.202 49.298 688.496 0H549.175z"/></g></svg>