<svg width="15" height="15" fill="none" xmlns="http://www.w3.org/2000/svg"><path d="M.248 3.383v8.22a2.922 2.922 0 002.922 2.92h8.219a2.922 2.922 0 002.921-2.92v-8.22A2.922 2.922 0 0011.39.461H3.17A2.922 2.922 0 00.249 3.383zm8.52 8.094a4.265 4.265 0 01-5.473-5.474A4.035 4.035 0 015.79 3.508a4.265 4.265 0 015.474 5.474 4.034 4.034 0 01-2.495 2.495zm3.39-8.237a.55.55 0 01-.991.223.55.55 0 01.31-.84.55.55 0 01.682.617z" fill="#C2C2C2"/><path d="M7.28 4.076a3.42 3.42 0 00-3.417 3.416A3.42 3.42 0 007.28 10.91a3.42 3.42 0 003.416-3.417A3.42 3.42 0 007.28 4.076z" fill="#C2C2C2"/></svg>