<svg width="20" height="20" fill="none" xmlns="http://www.w3.org/2000/svg"><path d="M.615 4.51v10.96a3.896 3.896 0 003.896 3.896h10.958a3.896 3.896 0 003.896-3.896V4.51A3.896 3.896 0 0015.47.615H4.511A3.896 3.896 0 00.615 4.51zm11.361 10.792a5.687 5.687 0 01-7.298-7.299 5.38 5.38 0 013.326-3.326 5.687 5.687 0 017.299 7.299 5.379 5.379 0 01-3.327 3.326zm4.52-10.982a.733.733 0 01-1.322.296.734.734 0 01-.03-.779.723.723 0 01.443-.34.734.734 0 01.91.822z" fill="#C2C2C2"/><path d="M9.99 5.436A4.56 4.56 0 005.435 9.99a4.56 4.56 0 004.555 4.555 4.56 4.56 0 004.554-4.555A4.56 4.56 0 009.99 5.436z" fill="#C2C2C2"/></svg>