<svg width="15" height="15" fill="none" xmlns="http://www.w3.org/2000/svg"><path d="M7.426.103h-.003C3.344.103.028 3.42.028 7.5a7.34 7.34 0 001.408 4.335l-.922 2.748 2.843-.91a7.333 7.333 0 004.07 1.223c4.078 0 7.394-3.318 7.394-7.396 0-4.079-3.316-7.397-7.395-7.397zm4.304 10.445c-.178.504-.887.922-1.452 1.044-.386.082-.89.148-2.59-.557-2.174-.9-3.574-3.11-3.683-3.253-.104-.143-.878-1.17-.878-2.23 0-1.062.539-1.579.756-1.8.179-.183.474-.266.757-.266.091 0 .173.005.247.008.218.01.327.023.47.366.178.43.613 1.49.665 1.6.053.11.105.257.031.4-.07.148-.13.214-.24.34-.108.125-.212.222-.321.357-.1.117-.213.243-.087.46.126.213.56.922 1.2 1.491.826.735 1.495.97 1.735 1.07.178.074.39.056.521-.082.166-.179.37-.475.578-.766.148-.209.335-.235.53-.16.2.069 1.257.591 1.475.7.217.108.36.16.413.252.052.091.052.521-.127 1.026z" fill="#C2C2C2"/></svg>